{
    "asset" : {
        "generator" : "Khronos glTF Blender I/O v1.6.16",
        "version" : "2.0"
    },
    "scene" : 0,
    "scenes" : [
        {
            "name" : "Scene",
            "nodes" : [
                0,
                1,
                2
            ]
        }
    ],
    "nodes" : [
        {
            "mesh" : 0,
            "name" : "Sphere"
        },
        {
            "name" : "Camera",
            "rotation" : [
                0.48353615403175354,
                0.3368716239929199,
                -0.20870371162891388,
                0.7804825901985168
            ],
            "translation" : [
                4.969714641571045,
                3.9026663303375244,
                6.152301788330078
            ]
        },
        {
            "name" : "Light",
            "rotation" : [
                0.10853835940361023,
                0.6077368855476379,
                0.4974896013736725,
                0.6094090938568115
            ],
            "translation" : [
                1.244195818901062,
                2.7157604694366455,
                4.310348987579346
            ]
        }
    ],
    "materials" : [
        {
            "doubleSided" : true,
            "name" : "Material",
            "normalTexture" : {
                "index" : 0
            },
            "pbrMetallicRoughness" : {
                "baseColorFactor" : [
                    0.16513200104236603,
                    0.11953850090503693,
                    0.9130989909172058,
                    1
                ],
                "roughnessFactor" : 0.5
            }
        }
    ],
    "meshes" : [
        {
            "name" : "Torus",
            "primitives" : [
                {
                    "attributes" : {
                        "POSITION" : 0,
                        "NORMAL" : 1,
                        "TEXCOORD_0" : 2
                    },
                    "indices" : 3,
                    "material" : 0
                }
            ]
        }
    ],
    "textures" : [
        {
            "sampler" : 0,
            "source" : 0
        }
    ],
    "images" : [
        {
            "mimeType" : "image/png",
            "name" : "Sphere normal",
            "uri" : "Sphere%20normal.png"
        }
    ],
    "accessors" : [
        {
            "bufferView" : 0,
            "componentType" : 5126,
            "count" : 73728,
            "max" : [
                1.2353026866912842,
                1.2353029251098633,
                1.2353025674819946
            ],
            "min" : [
                -1.2353029251098633,
                -1.2353026866912842,
                -1.2353026866912842
            ],
            "type" : "VEC3"
        },
        {
            "bufferView" : 1,
            "componentType" : 5126,
            "count" : 73728,
            "type" : "VEC3"
        },
        {
            "bufferView" : 2,
            "componentType" : 5126,
            "count" : 73728,
            "type" : "VEC2"
        },
        {
            "bufferView" : 3,
            "componentType" : 5125,
            "count" : 110592,
            "type" : "SCALAR"
        }
    ],
    "bufferViews" : [
        {
            "buffer" : 0,
            "byteLength" : 884736,
            "byteOffset" : 0
        },
        {
            "buffer" : 0,
            "byteLength" : 884736,
            "byteOffset" : 884736
        },
        {
            "buffer" : 0,
            "byteLength" : 589824,
            "byteOffset" : 1769472
        },
        {
            "buffer" : 0,
            "byteLength" : 442368,
            "byteOffset" : 2359296
        }
    ],
    "samplers" : [
        {
            "magFilter" : 9729,
            "minFilter" : 9987
        }
    ],
    "buffers" : [
        {
            "byteLength" : 2801664,
            "uri" : "Sphere.bin"
        }
    ]
}
